<?xml version="1.0" encoding="utf-8"?>
<!-- Generator: Adobe Illustrator 21.1.0, SVG Export Plug-In . SVG Version: 6.00 Build 0)  -->
<svg version="1.1" id="レイヤー_1" xmlns="http://www.w3.org/2000/svg" xmlns:xlink="http://www.w3.org/1999/xlink" x="0px"
	 y="0px" viewBox="0 0 1280 330" style="enable-background:new 0 0 1280 330;" xml:space="preserve">
<style type="text/css">
	.st0{display:none;}
	.st1{fill:#FFFFFF;}
	.st2{fill:url(#SVGID_1_);}
</style>
<rect x="-8.5" y="-8.5" class="st0" width="1288.5" height="338.5"/>
<g>
	<polyline class="st1" points="881.6,150 963.7,222.9 1011.2,216.4 902,123 	"/>
	<linearGradient id="SVGID_1_" gradientUnits="userSpaceOnUse" x1="542.3585" y1="175.3058" x2="1220.7416" y2="175.3058">
		<stop  offset="1.068376e-03" style="stop-color:#73B0FF"/>
		<stop  offset="1" style="stop-color:#00468B"/>
	</linearGradient>
	<path class="st2" d="M1176.6,68.5L1176.6,68.5c-58.9-58.9-154.7-58.9-213.6,0L881.6,150l-81.5-81.5c-58.9-58.9-154.7-58.9-213.6,0
		l0,0c-29.4,29.4-44.2,68.1-44.2,106.8c0,38.7,14.7,77.3,44.2,106.8l0,0c58.9,58.9,154.7,58.9,213.6,0l81.5-81.5l81.5,81.5
		c58.9,58.9,154.7,58.9,213.6,0l0,0c29.4-29.4,44.2-68.1,44.2-106.8C1220.7,136.6,1206,98,1176.6,68.5z M774.8,256.8
		c-44.9,44.9-118,44.9-163,0c-22.5-22.5-33.7-52-33.7-81.5c0-29.5,11.2-59,33.7-81.5c44.9-44.9,118-44.9,163,0l81.5,81.5
		L774.8,256.8z M988.3,256.8l-81.5-81.5l81.5-81.5c44.9-44.9,118-44.9,163,0c22.5,22.5,33.7,52,33.7,81.5c0,29.5-11.2,59-33.7,81.5
		C1106.4,301.7,1033.3,301.7,988.3,256.8z"/>
	<path class="st1" d="M205.7,127.7h-15.8c-1.4-10.6-6.4-16-15.1-16c-5.6,0-9.8,1.3-12.6,4c-2.8,2.7-4.2,6.7-4.2,12
		c0,4,1.6,7.7,4.7,11.2l33.7,37.9c6.2,7,9.3,14.4,9.3,22.4v8.1c0,8.6-3.1,16-9.3,22.3c-6.2,6.3-13.7,9.4-22.4,9.4h-16
		c-10.5,0-18.5-2.7-23.8-8c-5.3-5.3-8-13.2-8-23.8h16c-0.1,1.1-0.1,2-0.1,2.6c0,4.3,1.7,7.6,5,9.8c3.3,2.2,7,3.4,11,3.4
		c5.7,0,9.7-1.4,12.2-4.1c2.5-2.7,3.7-6.7,3.7-11.9c0-4-1.6-7.8-4.7-11.2l-33.7-37.7c-6.2-6.9-9.3-14.4-9.3-22.4v-8.1
		c0-8.6,3.1-16.1,9.3-22.4c6.2-6.3,13.7-9.4,22.4-9.4h16C193.8,95.9,204.4,106.5,205.7,127.7z"/>
	<path class="st1" d="M286.4,95.9h31.8v111.4c0,8.6-3.1,16-9.4,22.3c-6.2,6.3-13.7,9.4-22.4,9.4h-31.9c-8.7,0-16.2-3.1-22.4-9.4
		c-6.2-6.2-9.4-13.7-9.4-22.4V95.9h31.8v111.4c0,4.3,1.6,8,4.7,11.1c3.1,3.1,6.9,4.7,11.3,4.7c4.4,0,8.2-1.6,11.3-4.7
		c3.1-3.1,4.7-6.8,4.7-11.1V95.9z"/>
	<path class="st1" d="M333.8,239.1V95.9h7.2l88.2,79.5V95.9h16v143.1h-7.3l-88.1-79.5v79.5H333.8z"/>
	<path class="st1" d="M460.8,239.1V127.7c0-8.7,3.1-16.2,9.4-22.4c6.2-6.2,13.7-9.4,22.4-9.4h31.9c8.7,0,16.2,3.1,22.4,9.4
		c6.2,6.3,9.4,13.7,9.4,22.4v111.4h-31.8v-63.7h-31.9v63.7H460.8z M492.5,159.6h31.9v-31.9c0-4.3-1.6-8-4.7-11.1
		c-3.2-3.1-6.9-4.7-11.2-4.7c-4.4,0-8.1,1.6-11.3,4.7c-3.1,3.1-4.7,6.8-4.7,11.1V159.6z"/>
	<path class="st1" d="M617.8,159.6h47.7v47.7c0,10.5-3.4,18.5-10.2,23.8c-6.8,5.3-14,8-21.6,8h-31.9c-8.7,0-16.2-3.1-22.4-9.4
		c-6.2-6.2-9.4-13.7-9.4-22.4v-79.6c0-8.5,3.1-16,9.2-22.3c6.1-6.3,13.7-9.5,22.5-9.5h31.9c20,0,30.6,10.6,31.8,31.8h-16
		c-1.2-10.5-6.5-15.8-15.8-15.8h-16c-4.4,0-8.1,1.6-11.3,4.7c-3.1,3.1-4.7,6.8-4.7,11.1v79.6c0,4.4,1.6,8.1,4.7,11.2
		c3.1,3.1,6.9,4.6,11.3,4.6c10.1-0.5,15.5-5.8,16-15.8v-31.9h-16V159.6z"/>
	<path class="st1" d="M744.2,95.9H776v111.4c0,8.6-3.1,16-9.4,22.3c-6.2,6.3-13.7,9.4-22.4,9.4h-31.9c-8.7,0-16.2-3.1-22.4-9.4
		c-6.2-6.2-9.4-13.7-9.4-22.4V95.9h31.8v111.4c0,4.3,1.6,8,4.7,11.1c3.1,3.1,6.9,4.7,11.3,4.7c4.4,0,8.2-1.6,11.3-4.7
		c3.1-3.1,4.7-6.8,4.7-11.1V95.9z"/>
	<path class="st1" d="M949.1,239.1V95.9h7.2l88.2,79.5V95.9h16v143.1h-7.3l-88.1-79.5v79.5H949.1z"/>
	<path class="st1" d="M1106.1,95.9h31.9c8.7,0,16.2,3.1,22.4,9.4c6.2,6.3,9.4,13.7,9.4,22.4v79.6c0,8.6-3.1,16-9.4,22.3
		c-6.2,6.3-13.7,9.4-22.4,9.4h-31.9c-8.7,0-16.2-3.1-22.4-9.4c-6.2-6.2-9.4-13.7-9.4-22.4v-79.6c0-8.7,3.1-16.2,9.4-22.4
		C1089.9,99.1,1097.4,95.9,1106.1,95.9z M1106.1,127.7v79.6c0,4.3,1.6,8,4.7,11.1c3.1,3.1,6.9,4.7,11.3,4.7c4.4,0,8.2-1.6,11.3-4.7
		c3.1-3.1,4.7-6.8,4.7-11.1v-79.6c0-4.3-1.6-8-4.7-11.1c-3.2-3.1-6.9-4.7-11.2-4.7c-4.4,0-8.1,1.6-11.3,4.7
		C1107.7,119.7,1106.1,123.4,1106.1,127.7z"/>
	<path class="st1" d="M1211.3,239.1V111.9h-31.8v-16h95.4v16h-31.8v127.2H1211.3z"/>
	<g>
		<path class="st1" d="M52.6,239.1V48.3H5V24.4h143.1v23.9h-47.6v190.7H52.6z"/>
	</g>
	<polyline class="st1" points="902,123 982.1,3.8 940.2,9.5 875.6,106.8 863.8,19.9 816.6,26.4 845.6,239.1 892.8,232.6 881.5,150 	
		"/>
</g>
</svg>
