<?xml version="1.0" encoding="utf-8"?>
<!-- Generator: Adobe Illustrator 21.1.0, SVG Export Plug-In . SVG Version: 6.00 Build 0)  -->
<svg version="1.1" id="レイヤー_1" xmlns="http://www.w3.org/2000/svg" xmlns:xlink="http://www.w3.org/1999/xlink" x="0px"
	 y="0px" viewBox="0 0 492.6 62.6" style="enable-background:new 0 0 492.6 62.6;" xml:space="preserve">
<style type="text/css">
	.st0{fill:url(#SVGID_1_);}
	.st1{fill:url(#SVGID_2_);}
	.st2{fill:url(#SVGID_3_);}
	.st3{fill:url(#SVGID_4_);}
</style>
<g>
	<polygon points="0,23 14.7,23 14.7,61.5 26.7,61.5 26.7,23 41.5,23 41.5,12.4 0,12.4 	"/>
	<path d="M74.3,30.8c-7.6-1.9-9.3-2.9-9.3-5.5c0-2.4,2.4-3.9,6-3.9c4.6,0,7,2.3,7,6.5v1.2h12.1v-1.2c0-10.8-6.5-16.6-18.9-16.6
		c-10.9,0-18.5,6.2-18.5,15c0,11.2,9,13.5,17.7,15.7c6.8,1.8,8.8,2.4,8.8,5.5c0,3.5-3.6,4.8-6.9,4.8c-5.3,0-7.9-2.4-7.9-7.4v-1.2
		H52.1V45c0,11,7.5,17.6,20.1,17.6c11.6,0,19.4-6.4,19.4-16C91.6,35.1,82.4,32.8,74.3,30.8z"/>
	<path d="M130.7,42.2c0,6.3-2.6,9.5-7.8,9.5s-7.8-3.2-7.8-9.5V12.4h-12v30.1c0,13,7,20.1,19.8,20.1c12.8,0,19.8-7.1,19.8-20.1V12.4
		h-12V42.2z"/>
	<path d="M188.3,31.6c0,4.5,0.1,9.2,0.3,14.1c-1.8-4.3-3.9-8.8-6.2-13.6L173,12.4h-15.7v49.1h11.6V42.4c0-4.5-0.1-9.2-0.3-14.1
		c1.8,4.3,3.9,8.8,6.2,13.6l9.4,19.7h15.7V12.4h-11.6V31.6z"/>
	<path d="M228.9,12.4l-17,49.1h12.6l3.7-11.4h16.2l3.6,11.4h12.6l-17-49.1H228.9z M241,39.5h-9.5l0.5-1.6c1.5-4.7,2.9-9.5,4.2-14.3
		c1.2,4.3,2.6,9.1,4.3,14.3L241,39.5z"/>
	<path d="M289,22.2c4.5,0,7.2,2.1,8,6.1l0.2,1h12.7l-0.1-1.3c-1.1-10.5-8.8-16.7-20.7-16.7c-14.4,0-23.4,9.9-23.4,25.8
		c0,15.6,8,25.3,20.8,25.3c5.1,0,9.5-1.5,12.6-4.2v3.3h10.5v-28h-22.5v10.2h11c-0.5,5.8-3.6,8.7-9.3,8.7c-6.8,0-10.8-5.7-10.8-15.3
		C278,27.8,282.1,22.2,289,22.2z"/>
	<path d="M351.2,12.4v29.8c0,6.3-2.6,9.5-7.8,9.5c-5.1,0-7.8-3.2-7.8-9.5V12.4h-12v30.1c0,13,7,20.1,19.8,20.1
		c12.8,0,19.8-7.1,19.8-20.1V12.4H351.2z"/>
	<linearGradient id="SVGID_1_" gradientUnits="userSpaceOnUse" x1="426.3872" y1="-1.3274" x2="427.5406" y2="58.9394">
		<stop  offset="0" style="stop-color:#7ECEF4"/>
		<stop  offset="0.5056" style="stop-color:#00A1E9"/>
		<stop  offset="1" style="stop-color:#1D2088"/>
	</linearGradient>
	<path class="st0" d="M427.2,12.4c-7.3,0-13.3,6-13.3,13.3v32.9l5.9-3.8V25.7c0-4.1,3.3-7.4,7.4-7.4s7.4,3.3,7.4,7.4v32.9l5.9-3.8
		V25.7C440.5,18.4,434.6,12.4,427.2,12.4z"/>
	<linearGradient id="SVGID_2_" gradientUnits="userSpaceOnUse" x1="457.6573" y1="-1.9258" x2="458.8108" y2="58.341">
		<stop  offset="0" style="stop-color:#7ECEF4"/>
		<stop  offset="0.5056" style="stop-color:#00A1E9"/>
		<stop  offset="1" style="stop-color:#1D2088"/>
	</linearGradient>
	<path class="st1" d="M458.4,12.4c-7.3,0-13.3,6-13.3,13.3v5.9v11.6v2.1c0,7.3,6,13.3,13.3,13.3c7.3,0,13.3-6,13.3-13.3v-5.9V27.8
		v-2.1C471.7,18.4,465.7,12.4,458.4,12.4z M465.8,43.2v2.1c0,4.1-3.3,7.4-7.4,7.4s-7.4-3.3-7.4-7.4v-5.9V27.8v-2.1
		c0-4.1,3.3-7.4,7.4-7.4s7.4,3.3,7.4,7.4v5.9V43.2z"/>
	<linearGradient id="SVGID_3_" gradientUnits="userSpaceOnUse" x1="481.1242" y1="-2.375" x2="482.2776" y2="57.8918">
		<stop  offset="0" style="stop-color:#7ECEF4"/>
		<stop  offset="0.5056" style="stop-color:#00A1E9"/>
		<stop  offset="1" style="stop-color:#1D2088"/>
	</linearGradient>
	<path class="st2" d="M485.1,45.3v-27h5.5v-5.9h-5.5V0l-5.9,3.8v8.6h-4.3l-3.8,5.9h8.1v27c0,7.3,6,13.3,13.3,13.3v-5.9
		C488.5,52.7,485.1,49.4,485.1,45.3z"/>
	<linearGradient id="SVGID_4_" gradientUnits="userSpaceOnUse" x1="397.2673" y1="-0.77" x2="398.4208" y2="59.4967">
		<stop  offset="0" style="stop-color:#7ECEF4"/>
		<stop  offset="0.5056" style="stop-color:#00A1E9"/>
		<stop  offset="1" style="stop-color:#1D2088"/>
	</linearGradient>
	<polygon class="st3" points="406.2,12.4 393.3,32.2 389.8,37.6 388.6,39.5 388.6,0 382.8,3.8 382.8,48.6 382.8,55.1 382.8,58.6 
		388.6,58.6 388.6,50.3 393.4,43 403.9,58.7 410.9,58.6 396.9,37.6 413.2,12.4 	"/>
</g>
</svg>
